<svg xmlns="http://www.w3.org/2000/svg" width="1469" height="872" viewBox="0 0 1469 872" version="1.1"><path d="M 238 156.556 C 223.975 157.263, 209.822 158.367, 206.550 159.010 C 195.520 161.178, 188.277 168.426, 184.873 180.703 L 183.012 187.413 189.498 303.457 C 194.165 386.950, 196.432 421.372, 197.581 426.174 C 200.390 437.912, 207.391 444.757, 219.871 447.967 C 223.741 448.962, 227.041 449.410, 227.204 448.963 C 227.367 448.515, 232.125 447.575, 237.778 446.873 L 248.056 445.598 252.778 450.996 C 255.375 453.965, 257.500 456.839, 257.500 457.382 C 257.500 457.925, 255.397 458.906, 252.828 459.561 C 245.726 461.373, 242.554 464.238, 234.790 475.850 C 225.818 489.270, 212.204 507.135, 203.082 517.458 C 194.751 526.887, 192.824 532.392, 194.823 541.052 C 196.361 547.718, 199.184 551.283, 206.986 556.416 C 219.326 564.533, 223.418 565.705, 232.500 563.721 C 240.947 561.876, 254.326 551.383, 267.085 536.597 C 271.163 531.872, 274.794 528.004, 275.153 528.003 C 276.670 527.997, 292.418 546.923, 295.537 552.500 C 299.323 559.269, 302.813 562.320, 308.604 563.922 C 310.747 564.515, 313.162 565.425, 313.972 565.946 C 315.809 567.127, 315.324 567.299, 305.153 569.075 C 297.813 570.356, 290.626 574.205, 289.346 577.540 C 289.038 578.343, 288.138 579, 287.345 579 C 286.553 579, 283.775 581.138, 281.172 583.750 C 275.192 589.753, 274.323 593.279, 272.874 617.413 C 271.654 637.744, 272.102 648.362, 274.363 652.735 C 276.630 657.120, 282.399 661.761, 287.182 663.049 C 293.125 664.649, 301 665.814, 301 665.093 C 301 664.759, 302.933 664.639, 305.296 664.827 C 307.659 665.015, 312.226 664.481, 315.445 663.640 C 320.882 662.221, 321.555 662.240, 324.899 663.908 C 331.397 667.150, 337.344 668.117, 343.196 666.884 C 346.113 666.269, 349.057 665.319, 349.737 664.771 C 350.418 664.224, 351.768 664.097, 352.737 664.488 C 354.525 665.210, 380.444 667.277, 387.166 667.234 C 394.948 667.183, 406.305 663.665, 412.882 659.267 L 419.265 655 429.382 655.001 L 439.500 655.002 443.379 659 C 445.957 661.657, 448.953 663.503, 452.311 664.500 C 462.303 667.467, 481.583 665.569, 488.022 660.984 C 491.449 658.544, 491.461 658.544, 494.790 660.993 C 496.281 662.088, 501.500 663.959, 506.390 665.150 C 514.537 667.134, 515.929 667.209, 523.073 666.049 C 527.634 665.309, 533.694 665.047, 537.683 665.419 C 542.375 665.857, 546.183 665.595, 549.898 664.579 C 554.334 663.366, 557.275 663.290, 566.398 664.153 C 575.658 665.030, 578.479 664.948, 583.399 663.658 C 588.900 662.216, 589.542 662.234, 592.899 663.920 C 604.120 669.555, 612.841 668.484, 624.359 660.055 C 632.413 654.160, 634.579 651.310, 636.447 644.146 C 637.432 640.372, 637.395 638.562, 636.252 634.500 C 635.478 631.750, 634.416 627.090, 633.892 624.144 C 632.414 615.839, 628.382 605.252, 623.819 597.701 L 619.664 590.824 621.943 584.662 C 623.196 581.273, 624.678 577.099, 625.236 575.388 C 626.177 572.503, 626.747 572.187, 633.032 571.064 C 644.302 569.050, 650.053 563.284, 652.075 551.970 L 653.297 545.128 658.399 543.942 C 661.204 543.290, 664.945 541.885, 666.712 540.820 C 671.297 538.057, 685 516.803, 685 512.455 C 685 510.804, 685.178 510.753, 686.440 512.036 C 687.962 513.584, 688.212 517.632, 691.536 594.500 C 692.492 616.617, 693.671 633.256, 694.591 637.647 C 696.400 646.270, 700.376 652.661, 707.415 658.259 C 712.733 662.488, 723.348 667.959, 727.233 668.472 C 728.480 668.637, 734.225 669.906, 740 671.293 C 756.963 675.365, 765.513 676.381, 783 676.406 C 806.279 676.438, 829.504 672.162, 850.376 664.002 C 869.816 656.401, 888.833 641.344, 899.319 625.250 C 901.917 621.263, 904.721 618, 905.551 618 C 906.381 618, 909.869 620.383, 913.302 623.295 C 920.671 629.546, 926.729 633.779, 933.225 637.216 C 935.824 638.591, 937.734 639.933, 937.469 640.197 C 937.204 640.462, 938.003 641.539, 939.244 642.589 L 941.500 644.500 939.595 642.250 C 937.356 639.605, 938.371 639.421, 943.466 641.550 C 945.507 642.403, 952.199 644.286, 958.338 645.734 C 989.084 652.990, 1024.992 645.091, 1051.528 625.236 C 1062.144 617.292, 1067.712 611.751, 1075.082 601.794 C 1080.658 594.262, 1081.602 593.438, 1085.361 592.824 C 1092.204 591.707, 1094.025 591.888, 1094.647 593.750 C 1097.805 603.210, 1108.095 619.994, 1114.159 625.576 C 1121.648 632.469, 1136.793 642.087, 1140.947 642.587 C 1141.801 642.690, 1144.975 643.655, 1148 644.732 C 1151.025 645.809, 1156.812 647.496, 1160.860 648.480 C 1167.196 650.020, 1169.004 650.098, 1173.860 649.040 C 1181.064 647.471, 1187.018 644.031, 1190.783 639.263 C 1195.491 633.301, 1214.605 594.229, 1215.924 587.873 C 1218.101 577.375, 1214.455 568.692, 1205.165 562.250 C 1198.850 557.871, 1198.240 556.891, 1197.405 549.790 L 1196.768 544.370 1202.634 543.081 C 1209.893 541.486, 1214.005 539.045, 1218.062 533.921 C 1222.197 528.700, 1223.240 524.240, 1227.399 494 C 1230.850 468.914, 1230.880 468.394, 1229.268 462 C 1227.891 456.540, 1226.813 454.684, 1222.531 450.402 C 1218.536 446.406, 1216.306 445.033, 1212.217 444.052 C 1209.348 443.364, 1207.016 442.283, 1207.036 441.650 C 1207.056 441.018, 1207.649 436.127, 1208.354 430.783 C 1210.196 416.817, 1208.769 408.923, 1203.410 403.416 C 1201.259 401.207, 1198.532 398.605, 1197.349 397.634 C 1194.890 395.616, 1186.483 393.472, 1177 392.443 C 1173.425 392.055, 1170.137 391.529, 1169.694 391.275 C 1169.251 391.021, 1171.698 389.484, 1175.132 387.860 C 1187.938 381.804, 1202.898 369.283, 1211.985 357.015 C 1219.076 347.441, 1223.807 337.252, 1227.248 324.138 C 1229.869 314.147, 1230.302 310.731, 1230.302 300 C 1230.302 289.269, 1229.869 285.853, 1227.248 275.862 C 1223.905 263.124, 1219.069 252.506, 1212.734 244 C 1196.812 222.618, 1180.618 211.417, 1156.594 205.170 C 1147.873 202.903, 1144.460 202.546, 1131.500 202.546 C 1118.540 202.546, 1115.127 202.903, 1106.406 205.170 C 1088.815 209.745, 1074.761 217.521, 1061.688 229.913 C 1055.657 235.630, 1047.478 246.087, 1044.583 251.783 C 1043.666 253.588, 1042.489 254.802, 1041.969 254.481 C 1041.443 254.156, 1041.296 254.609, 1041.639 255.502 C 1042.379 257.429, 1039.156 265, 1037.596 265 C 1036.991 265, 1035.397 262.927, 1034.053 260.393 C 1030.633 253.946, 1020.060 240.138, 1015.434 236.076 C 999.557 222.136, 979.850 215.229, 953.288 214.294 C 936.264 213.695, 927.579 214.647, 910.345 218.998 C 885.902 225.170, 865.218 238.820, 850.762 258.321 C 846.574 263.970, 845.277 265.095, 843.372 264.731 C 842.101 264.488, 841.298 264.674, 841.589 265.144 C 841.880 265.615, 840.404 265.997, 838.309 265.994 C 834.770 265.988, 833.983 265.385, 827.218 257.498 C 812.504 240.341, 792.843 229.901, 764.500 224.194 C 749.891 221.253, 739.116 220.669, 727 222.163 C 721.225 222.875, 706.825 223.474, 695 223.494 C 669.804 223.536, 667.057 224.101, 660.577 230.581 C 654.821 236.337, 652.952 242.109, 652.265 256.250 C 651.761 266.623, 651.663 267, 649.461 267 C 647.891 267, 645.144 264.726, 640.650 259.704 C 620.397 237.075, 588.882 225.091, 552.656 226.244 C 532.072 226.899, 513.927 231.057, 499 238.539 C 489.455 243.324, 476.139 253.160, 468.512 261.061 L 461.821 267.991 462.387 259.745 C 462.982 251.067, 463.383 243.208, 465.046 207.692 C 466.474 177.184, 464.927 170.380, 454.999 163.500 C 449.397 159.617, 441.371 158.242, 414.319 156.530 C 374.391 154.004, 370.786 154.442, 362.120 162.883 C 354.894 169.921, 353.859 174.024, 353.265 198 C 352.999 208.725, 352.359 218.022, 351.842 218.661 C 351.248 219.396, 351.288 220.060, 351.951 220.470 C 353.108 221.184, 353.246 233.036, 352.176 239.729 L 351.500 243.957 347.098 236.729 C 342.448 229.092, 317.516 191.616, 308.764 179.107 C 302.557 170.235, 295.533 162.844, 291.159 160.582 C 286.404 158.123, 273.143 155.013, 268 155.151 C 265.525 155.218, 252.025 155.850, 238 156.556 M 376.217 177.269 C 374.140 179.480, 374.047 180.885, 372.559 232.519 C 371.719 261.658, 370.878 290.349, 370.690 296.276 C 370.329 307.652, 369.408 310.283, 366.839 307.274 C 366.006 306.298, 358.889 294.700, 351.024 281.500 C 313.278 218.155, 288.665 182.422, 279.586 177.788 C 275.720 175.814, 274.478 175.736, 256.500 176.342 C 211.562 177.856, 209.825 178.021, 206.756 181.090 C 204.180 183.666, 204.003 184.390, 204.043 192.173 C 204.067 196.753, 206.893 250.266, 210.324 311.090 C 217.064 430.604, 216.567 425.752, 222.302 427.920 C 224.793 428.861, 281.787 421.712, 286.201 419.904 C 289.571 418.524, 291.995 414.931, 292.015 411.285 C 292.024 409.753, 288.611 379.785, 284.432 344.689 C 280.252 309.593, 277.081 280.230, 277.385 279.439 C 278.768 275.836, 281.943 278.931, 289.714 291.458 C 298.054 304.903, 315.380 335.241, 337.996 376 C 360.834 417.159, 363.139 421.025, 365.822 422.675 C 366.984 423.390, 379.779 424.544, 398.498 425.622 L 429.264 427.394 431.474 424.825 C 433.896 422.010, 433.506 425.852, 436.480 375.500 C 439.687 321.217, 446 196.257, 446 187.075 C 446 184.867, 445.238 182.281, 444.216 181.019 C 442.523 178.928, 440.961 178.721, 413.466 176.936 C 376.880 174.561, 378.777 174.544, 376.217 177.269 M 1118.831 222.955 C 1106.384 225.238, 1093.166 230.771, 1083.885 237.585 C 1077.394 242.349, 1067.116 253.602, 1063.145 260.291 C 1045.358 290.257, 1049.238 326.882, 1072.883 352.192 C 1083.643 363.710, 1095.284 370.807, 1110.585 375.175 C 1121.875 378.399, 1141.125 378.399, 1152.415 375.175 C 1160.381 372.901, 1171.773 367.689, 1177.443 363.724 C 1188.556 355.953, 1200.304 341.204, 1205.279 328.777 C 1222.459 285.861, 1198.248 237.840, 1152.961 225.010 C 1144.607 222.644, 1126.478 221.552, 1118.831 222.955 M 1119.075 233.022 C 1093.128 238.497, 1073.229 255.762, 1065.427 279.569 C 1062.878 287.345, 1062.500 289.987, 1062.500 300 C 1062.500 310.013, 1062.878 312.655, 1065.427 320.431 C 1072.981 343.479, 1093.397 361.620, 1117.208 366.440 C 1151.774 373.437, 1185.624 354.302, 1197.383 321.118 C 1200.166 313.265, 1200.437 311.390, 1200.437 300 C 1200.437 288.610, 1200.166 286.735, 1197.383 278.882 C 1189.824 257.550, 1173.418 241.862, 1151.500 235.008 C 1143.580 232.532, 1126.388 231.478, 1119.075 233.022 M 931.500 234.974 C 906.796 238.506, 890.460 246.285, 874.968 261.895 C 866.979 269.945, 864.667 273.038, 860.687 281 C 853.696 294.987, 851.896 302.082, 851.278 318.090 C 850.494 338.407, 853.990 352.438, 864.165 369.819 C 869.254 378.511, 885.947 394.625, 895.342 399.915 C 911.348 408.928, 935.183 414.584, 954.042 413.845 C 967.495 413.318, 969.096 411.600, 978.041 388.089 C 984.053 372.287, 984.372 369.577, 980.601 366.333 C 978.189 364.258, 976.871 363.998, 968.694 363.983 C 941.252 363.931, 922.516 352.185, 915.884 330.875 C 912.436 319.797, 913.870 308.324, 919.887 298.838 C 928.812 284.768, 951.308 284.094, 957.797 297.701 C 959.417 301.099, 959.402 301.256, 957.273 302.980 C 956.066 303.957, 951.028 305.758, 946.077 306.981 C 941.125 308.204, 936.551 309.837, 935.910 310.608 C 934.291 312.559, 935.192 317.087, 940.508 333.729 C 943.940 344.474, 945.582 348.241, 947.212 349.114 C 949.960 350.584, 963.802 349.675, 979.782 346.975 C 1015.625 340.917, 1026.721 331.752, 1026.361 308.500 C 1026.019 286.419, 1017.746 266.536, 1003.201 252.840 C 995.132 245.242, 987.525 241.027, 975.473 237.477 C 968.020 235.282, 964.043 234.773, 952 234.475 C 944.025 234.278, 934.800 234.503, 931.500 234.974 M 723 242.465 C 714.510 244.473, 706.032 244.931, 692.583 244.106 C 684.378 243.603, 677.053 243.426, 676.305 243.713 C 675.557 244, 674.510 245.048, 673.978 246.040 C 673.447 247.033, 672.112 265.318, 671.012 286.673 C 669.911 308.028, 668.287 339.345, 667.401 356.267 C 666.516 373.189, 666.060 388.101, 666.387 389.406 C 666.715 390.712, 667.717 392.061, 668.615 392.406 C 669.513 392.750, 682.891 393.701, 698.344 394.518 C 724.925 395.924, 726.532 395.910, 728.146 394.252 C 729.629 392.730, 730.192 386.090, 732.443 343.567 C 733.868 316.653, 735.274 294.392, 735.569 294.098 C 736.662 293.005, 749.635 297.128, 753.405 299.766 C 764.005 307.187, 766.940 315.045, 768.059 339 C 768.944 357.941, 770.103 363.676, 775.125 373.955 C 779.879 383.686, 792 395.432, 802.866 400.838 C 815.898 407.322, 816.891 407.130, 833.654 394.891 C 841.269 389.331, 848.513 383.852, 849.750 382.716 C 853.294 379.463, 852.571 376.604, 846.547 370.051 C 836.290 358.894, 834.361 352.666, 833.057 326.500 C 832.370 312.722, 831.649 306.858, 829.980 301.500 C 822.850 278.602, 805.834 260.071, 783.159 250.508 C 768.801 244.453, 760.351 242.817, 741.500 242.445 C 732.150 242.261, 723.825 242.270, 723 242.465 M 539.955 247.030 C 531.367 248.232, 517.562 252.272, 509.399 255.973 C 484.161 267.416, 466.731 289.212, 460.289 317.385 C 457.753 328.474, 458.046 352.189, 460.847 362.500 C 466.513 383.359, 478.443 400.068, 496.363 412.244 C 516.396 425.856, 544.226 431.142, 569 426.041 C 604.314 418.770, 633.951 396.289, 645.825 367.766 C 663.351 325.666, 640.870 272.175, 597.979 253.923 C 586.405 248.998, 576.004 246.940, 560.500 246.506 C 552.800 246.291, 543.555 246.527, 539.955 247.030 M 549.801 302.027 C 539.659 303.737, 531.502 310.328, 526.729 320.670 C 524.872 324.694, 524.500 327.252, 524.500 336 C 524.500 345.128, 524.821 347.153, 526.957 351.500 C 534.292 366.425, 550.983 374.026, 566.572 369.539 C 571.407 368.148, 573.514 366.788, 578 362.167 C 584.415 355.557, 586.887 349.757, 587.706 339.391 C 588.894 324.347, 582.496 310.432, 571.871 304.954 C 568.907 303.426, 556.913 300.704, 555 301.125 C 554.725 301.186, 552.385 301.592, 549.801 302.027 M 1120.235 407.037 C 1116.954 408.355, 1116.200 411.207, 1113.801 431.370 C 1112.614 441.342, 1111.308 449.893, 1110.899 450.373 C 1110.479 450.866, 1105.708 450.678, 1099.931 449.942 L 1089.707 448.639 1087.513 451.190 C 1085.645 453.362, 1084.837 457.286, 1082.070 477.620 C 1080.283 490.754, 1078.603 502.449, 1078.337 503.609 C 1078.036 504.923, 1078.730 506.708, 1080.177 508.342 C 1082.207 510.634, 1083.698 511.097, 1092 512.014 C 1097.225 512.590, 1102.456 513.267, 1103.624 513.518 C 1105.696 513.964, 1105.761 514.538, 1106.275 537.237 C 1107.193 577.719, 1112.105 594.210, 1127.957 610.026 C 1133.737 615.794, 1137.486 618.525, 1144 621.712 C 1160.787 629.925, 1170.891 631.911, 1174.723 627.750 C 1177.778 624.433, 1197 585.433, 1197 582.552 C 1197 580.688, 1195.909 579.445, 1192.542 577.471 C 1183.690 572.284, 1180.078 565.817, 1178.037 551.500 C 1176.874 543.339, 1176.697 525.004, 1177.765 523.391 C 1178.299 522.584, 1181.442 522.568, 1189.281 523.332 C 1204.296 524.794, 1203.172 526.512, 1207.512 495.487 C 1209.430 481.773, 1211 469.529, 1211 468.276 C 1211 463.836, 1208.081 462.396, 1196.417 461.083 C 1190.426 460.409, 1185.423 459.756, 1185.298 459.632 C 1185.174 459.507, 1186.181 450.910, 1187.536 440.526 C 1190.524 417.632, 1190.515 418.705, 1187.750 415.518 C 1185.566 413.002, 1184.603 412.824, 1155 409.468 C 1121.155 405.632, 1123.350 405.785, 1120.235 407.037 M 780 425.697 C 770.641 426.703, 758.154 429.275, 749.776 431.920 C 742.950 434.076, 737.595 435.011, 729.500 435.459 C 723.450 435.794, 715.892 436.324, 712.705 436.637 C 703.504 437.541, 703.720 436.542, 705.458 470.085 C 706.267 485.713, 708.299 526.625, 709.973 561 C 713.847 640.542, 713.330 635.253, 717.713 640.105 C 727.418 650.847, 757.141 657.765, 789 656.699 C 826.197 655.453, 856.509 644.093, 874.749 624.562 C 885.610 612.932, 890 601.863, 890 586.111 C 890 569.955, 883.750 553.689, 873.436 543.006 L 866.801 536.134 871.953 529.817 C 884.258 514.729, 888.421 498.091, 884.510 479.629 C 879.704 456.948, 860.439 437.864, 834.500 430.091 C 820.512 425.899, 796.283 423.945, 780 425.697 M 968.625 469.554 C 945.025 474.243, 927.314 484.907, 915.390 501.607 C 906.829 513.595, 902.626 525.389, 901.031 541.897 C 898.772 565.282, 905.713 586.855, 920.710 603.053 C 950.864 635.624, 1002.441 637.688, 1041.964 607.906 C 1077.091 581.437, 1083.005 534.815, 1055.826 498.636 C 1044.317 483.315, 1026.333 472.729, 1005.566 469.051 C 997.452 467.614, 976.987 467.892, 968.625 469.554 M 611.470 472.217 C 611.198 472.925, 611.094 491.054, 611.238 512.502 L 611.500 551.500 622 551.500 L 632.500 551.500 632.772 532.674 L 633.045 513.847 643.597 519.482 C 649.401 522.581, 654.615 524.962, 655.184 524.772 C 656.315 524.395, 667 507.221, 667 505.779 C 667 504.384, 657.328 500.470, 648 498.090 L 639.500 495.921 636.276 499.597 L 633.052 503.273 632.776 487.386 L 632.500 471.500 622.232 471.215 C 614.569 471.002, 611.839 471.256, 611.470 472.217 M 777 476.816 C 772.878 477.622, 773.092 475.423, 774.369 503.827 C 775.017 518.246, 775.571 523.282, 776.553 523.659 C 778.718 524.489, 795.404 522.119, 802.227 520.012 C 809.080 517.895, 816.051 512.736, 818.526 507.949 C 820.662 503.819, 820.409 494.722, 818.029 490.057 C 815.538 485.173, 809.927 480.517, 804.056 478.459 C 799.094 476.721, 782.607 475.719, 777 476.816 M 436.699 477.634 C 436.315 478.019, 436.001 481.746, 436.002 485.917 L 436.004 493.500 425.134 493.190 L 414.264 492.880 413.758 501.190 C 413.464 506.021, 413.670 510.023, 414.249 510.750 C 414.913 511.584, 418.285 512.005, 424.372 512.015 C 429.393 512.024, 434.051 512.381, 434.726 512.809 C 435.598 513.364, 436.030 518.613, 436.226 531.044 L 436.500 548.500 447 548.500 L 457.500 548.500 457.773 531.293 L 458.047 514.087 465.273 513.793 L 472.500 513.500 472.500 504.500 L 472.500 495.500 467.500 495.239 C 457.818 494.733, 458.117 495.026, 457.790 485.741 L 457.500 477.500 447.449 477.217 C 441.922 477.062, 437.084 477.249, 436.699 477.634 M 250.490 488.250 C 241.873 501.209, 230.773 515.978, 221.089 527.365 L 213.551 536.230 216.232 538.365 C 217.706 539.539, 220.932 541.602, 223.401 542.949 C 227.527 545.200, 228.115 545.281, 230.694 543.951 C 235.474 541.487, 257.166 518.972, 263.887 509.500 C 269.062 502.206, 276 489.664, 276 487.603 C 276 486.982, 259.397 478, 258.249 478 C 257.730 478, 254.238 482.613, 250.490 488.250 M 467.739 480.027 C 465.670 480.391, 463.769 480.898, 463.513 481.154 C 463.258 481.409, 463.902 483.842, 464.945 486.559 C 466.804 491.400, 466.920 491.494, 470.671 491.184 C 472.777 491.010, 474.861 490.514, 475.302 490.082 C 476.370 489.036, 474.111 480.241, 472.648 479.751 C 472.017 479.539, 469.808 479.664, 467.739 480.027 M 479.750 481.324 C 478.238 482.562, 477 484.029, 477 484.585 C 477 485.140, 478.755 487.307, 480.899 489.402 L 484.798 493.209 487.899 490.916 C 489.605 489.656, 491 488.136, 491 487.540 C 491 485.921, 485.035 478.994, 483.677 479.036 C 483.030 479.056, 481.262 480.085, 479.750 481.324 M 303.894 484.250 C 300.436 486.587, 297.461 488.978, 297.283 489.562 C 296.787 491.187, 312.078 507.184, 313.578 506.608 C 316.557 505.465, 329 495.740, 329 494.555 C 329 493.848, 328.093 492.117, 326.984 490.707 C 324.676 487.773, 313.418 480, 311.477 480 C 310.764 480, 307.352 481.913, 303.894 484.250 M 532.750 498.242 C 526.019 499.395, 525.904 499.791, 529.323 510 L 531.500 516.500 537.250 516.241 C 540.413 516.098, 543 516.168, 543 516.395 C 543 517.878, 533.935 532.647, 528.693 539.705 C 526.567 542.568, 525.081 545.323, 525.392 545.826 C 525.703 546.329, 528.698 547.765, 532.048 549.018 L 538.138 551.295 543.636 545.898 C 550.388 539.268, 556.661 530.014, 561.925 518.916 C 568.357 505.356, 568.432 505.895, 559.545 502.020 C 555.371 500.200, 551.762 498.905, 551.525 499.142 C 551.287 499.379, 550.216 501.532, 549.144 503.926 L 547.196 508.279 545.481 504.889 C 543.667 501.304, 540.043 496.913, 539.076 497.128 C 538.759 497.199, 535.913 497.700, 532.750 498.242 M 345.500 508.542 C 340 511.513, 328.637 516.976, 320.250 520.683 C 311.863 524.390, 305 527.791, 305 528.242 C 305 529.193, 312.742 543.081, 313.986 544.361 C 317.093 547.560, 362.321 524.539, 364.601 518.598 C 365.109 517.274, 357.325 502.948, 356.164 503.070 C 355.799 503.108, 351 505.571, 345.500 508.542 M 512.694 503.732 C 510.601 503.949, 508.657 504.731, 508.374 505.469 C 507.847 506.840, 511.626 520.905, 512.878 522.235 C 513.259 522.639, 516.929 522.414, 521.035 521.735 C 528.019 520.580, 528.520 520.328, 528.809 517.826 C 529.121 515.129, 526.072 507.984, 523.229 504.750 C 521.726 503.041, 520.491 502.921, 512.694 503.732 M 977.640 518.572 C 970.008 521.010, 963.663 528.007, 960.933 536.995 C 956.067 553.015, 961.940 567.895, 975.818 574.710 C 983.018 578.246, 994.148 578.625, 1000.403 575.547 C 1009.708 570.969, 1015.098 562.017, 1015.795 549.986 C 1016.597 536.130, 1011.410 525.145, 1001.707 520.152 C 995.624 517.022, 984.732 516.307, 977.640 518.572 M 414.321 523.346 C 409.822 524.531, 405.886 525.761, 405.574 526.080 C 405.262 526.399, 406.735 530.899, 408.847 536.080 C 412.502 545.046, 412.822 545.485, 415.482 545.191 C 419.759 544.717, 430.599 540.101, 432.583 537.909 C 434.240 536.077, 434.247 535.742, 432.702 532.502 C 429.462 525.706, 425.969 521, 424.237 521.096 C 423.282 521.148, 418.819 522.161, 414.321 523.346 M 466.753 525.376 C 463.592 527.094, 461.004 528.919, 461.003 529.431 C 460.998 531.177, 472.207 545, 473.628 545 C 476.110 545, 491 537.030, 491 535.701 C 491 534.324, 483.066 526.336, 479.027 523.647 C 475.669 521.410, 473.484 521.718, 466.753 525.376 M 778.392 581.135 C 779.321 604.235, 779.689 606.682, 782.331 607.391 C 790.417 609.560, 807.515 606.535, 814.689 601.667 C 820.819 597.507, 823.108 594.219, 823.733 588.677 C 824.876 578.540, 821.143 572.074, 811.757 567.933 C 807.266 565.951, 804.405 565.552, 792.117 565.192 L 777.734 564.771 778.392 581.135 M 364 574.725 C 360.425 574.934, 357.161 575.443, 356.747 575.855 C 356.047 576.554, 358.631 638.941, 359.555 643.621 C 359.941 645.577, 360.849 645.799, 371.237 646.480 C 388.588 647.617, 392.163 647.416, 397.808 644.987 C 408.932 640.202, 415.364 628.482, 413.106 617.114 C 411.724 610.151, 407.681 604.202, 402.317 601.237 C 396.705 598.134, 388.215 596.689, 382.116 597.797 L 377.202 598.690 376.351 586.595 C 375.379 572.773, 376.640 573.986, 364 574.725 M 302 597.868 L 294.500 598.500 293.881 609 C 293.541 614.775, 292.968 624.970, 292.609 631.655 L 291.954 643.810 301.522 644.527 C 306.784 644.922, 311.255 645.077, 311.459 644.872 C 311.663 644.668, 312.156 637.625, 312.556 629.222 C 312.955 620.819, 313.655 613.713, 314.112 613.431 C 315.394 612.638, 320.815 615.785, 322.008 618.016 C 322.596 619.113, 323.325 623.046, 323.628 626.756 C 324.414 636.349, 325.583 639.391, 330.031 643.409 C 335.527 648.375, 338.208 648.834, 342.779 645.595 C 350.939 639.813, 350.524 640.420, 348.390 637.405 C 344.650 632.121, 344.029 630.423, 344.015 625.432 C 343.966 608.843, 333.658 598.263, 316.847 597.548 C 312.806 597.377, 306.125 597.521, 302 597.868 M 470.500 597.989 C 468.300 598.412, 463.849 599.078, 460.609 599.469 L 454.718 600.179 455.382 612.840 C 455.748 619.803, 456.328 630.112, 456.671 635.750 L 457.295 646 465.897 645.985 C 470.629 645.976, 475.078 645.603, 475.785 645.154 C 476.805 644.507, 476.881 641.269, 476.154 629.419 C 475.486 618.527, 475.544 614.298, 476.369 613.752 C 476.991 613.340, 479.371 613.273, 481.658 613.602 L 485.817 614.200 486.901 608.850 C 488.812 599.429, 488.753 598.717, 486 597.922 C 482.756 596.984, 475.558 597.016, 470.500 597.989 M 570 597.868 L 562.500 598.500 561.858 610 C 561.505 616.325, 560.926 626.519, 560.573 632.654 L 559.930 643.808 569.509 644.526 C 574.778 644.921, 579.255 645.077, 579.459 644.872 C 579.663 644.668, 580.156 637.625, 580.556 629.222 C 580.955 620.819, 581.655 613.713, 582.112 613.431 C 583.394 612.638, 588.815 615.785, 590.008 618.016 C 590.596 619.113, 591.325 623.046, 591.628 626.756 C 592.414 636.349, 593.583 639.391, 598.031 643.409 C 603.527 648.375, 606.208 648.834, 610.779 645.595 C 619.109 639.693, 618.979 640.031, 614.719 635.294 C 613.224 633.633, 612.526 630.826, 611.888 623.918 C 611.245 616.949, 610.432 613.706, 608.499 610.408 C 602.136 599.550, 591.429 596.063, 570 597.868 M 529.355 599.517 C 529.108 600.160, 528.564 606.864, 528.145 614.415 C 527.317 629.363, 527.055 629.957, 521.285 629.985 C 516.659 630.007, 515.699 627.526, 514.520 612.500 L 513.500 599.500 505.819 599.617 C 493.966 599.796, 494.713 598.659, 495.215 615.760 C 495.705 632.466, 496.990 637.028, 502.590 641.945 C 507.208 646, 513.012 647.434, 520.500 646.371 C 523.800 645.902, 530.888 645.614, 536.250 645.731 C 541.612 645.848, 546.036 645.844, 546.080 645.722 C 546.625 644.203, 548.584 600.326, 548.127 599.859 C 546.891 598.595, 529.828 598.285, 529.355 599.517 M 379.750 613.689 C 377.829 614.191, 377.457 618.757, 378.636 627.360 C 379.270 631.987, 379.283 632, 383.213 632 C 388.822 632, 393 627.744, 393 622.031 C 393 614.964, 387.682 611.616, 379.750 613.689 M 450 675.647 C 458.280 676.382, 468.779 676.441, 468.349 675.750 C 468.092 675.337, 463.071 675.076, 457.191 675.168 C 451.311 675.261, 448.075 675.476, 450 675.647" stroke="none" fill="#ffffff" fill-rule="evenodd"/><path d="M 376.217 177.269 C 374.140 179.480, 374.047 180.885, 372.559 232.519 C 371.719 261.658, 370.878 290.349, 370.690 296.276 C 370.329 307.652, 369.408 310.283, 366.839 307.274 C 366.006 306.298, 358.889 294.700, 351.024 281.500 C 313.278 218.155, 288.665 182.422, 279.586 177.788 C 275.720 175.814, 274.478 175.736, 256.500 176.342 C 211.562 177.856, 209.825 178.021, 206.756 181.090 C 204.180 183.666, 204.003 184.390, 204.043 192.173 C 204.067 196.753, 206.893 250.266, 210.324 311.090 C 217.064 430.604, 216.567 425.752, 222.302 427.920 C 224.793 428.861, 281.787 421.712, 286.201 419.904 C 289.571 418.524, 291.995 414.931, 292.015 411.285 C 292.024 409.753, 288.611 379.785, 284.432 344.689 C 280.252 309.593, 277.081 280.230, 277.385 279.439 C 278.768 275.836, 281.943 278.931, 289.714 291.458 C 298.054 304.903, 315.380 335.241, 337.996 376 C 360.834 417.159, 363.139 421.025, 365.822 422.675 C 366.984 423.390, 379.779 424.544, 398.498 425.622 L 429.264 427.394 431.474 424.825 C 433.896 422.010, 433.506 425.852, 436.480 375.500 C 439.687 321.217, 446 196.257, 446 187.075 C 446 184.867, 445.238 182.281, 444.216 181.019 C 442.523 178.928, 440.961 178.721, 413.466 176.936 C 376.880 174.561, 378.777 174.544, 376.217 177.269 M 1118.831 222.955 C 1106.384 225.238, 1093.166 230.771, 1083.885 237.585 C 1077.394 242.349, 1067.116 253.602, 1063.145 260.291 C 1045.358 290.257, 1049.238 326.882, 1072.883 352.192 C 1083.643 363.710, 1095.284 370.807, 1110.585 375.175 C 1121.875 378.399, 1141.125 378.399, 1152.415 375.175 C 1160.381 372.901, 1171.773 367.689, 1177.443 363.724 C 1188.556 355.953, 1200.304 341.204, 1205.279 328.777 C 1222.459 285.861, 1198.248 237.840, 1152.961 225.010 C 1144.607 222.644, 1126.478 221.552, 1118.831 222.955 M 1119.075 233.022 C 1093.128 238.497, 1073.229 255.762, 1065.427 279.569 C 1062.878 287.345, 1062.500 289.987, 1062.500 300 C 1062.500 310.013, 1062.878 312.655, 1065.427 320.431 C 1072.981 343.479, 1093.397 361.620, 1117.208 366.440 C 1151.774 373.437, 1185.624 354.302, 1197.383 321.118 C 1200.166 313.265, 1200.437 311.390, 1200.437 300 C 1200.437 288.610, 1200.166 286.735, 1197.383 278.882 C 1189.824 257.550, 1173.418 241.862, 1151.500 235.008 C 1143.580 232.532, 1126.388 231.478, 1119.075 233.022 M 931.500 234.974 C 906.796 238.506, 890.460 246.285, 874.968 261.895 C 866.979 269.945, 864.667 273.038, 860.687 281 C 853.696 294.987, 851.896 302.082, 851.278 318.090 C 850.494 338.407, 853.990 352.438, 864.165 369.819 C 869.254 378.511, 885.947 394.625, 895.342 399.915 C 911.348 408.928, 935.183 414.584, 954.042 413.845 C 967.495 413.318, 969.096 411.600, 978.041 388.089 C 984.053 372.287, 984.372 369.577, 980.601 366.333 C 978.189 364.258, 976.871 363.998, 968.694 363.983 C 941.252 363.931, 922.516 352.185, 915.884 330.875 C 912.436 319.797, 913.870 308.324, 919.887 298.838 C 928.812 284.768, 951.308 284.094, 957.797 297.701 C 959.417 301.099, 959.402 301.256, 957.273 302.980 C 956.066 303.957, 951.028 305.758, 946.077 306.981 C 941.125 308.204, 936.551 309.837, 935.910 310.608 C 934.291 312.559, 935.192 317.087, 940.508 333.729 C 943.940 344.474, 945.582 348.241, 947.212 349.114 C 949.960 350.584, 963.802 349.675, 979.782 346.975 C 1015.625 340.917, 1026.721 331.752, 1026.361 308.500 C 1026.019 286.419, 1017.746 266.536, 1003.201 252.840 C 995.132 245.242, 987.525 241.027, 975.473 237.477 C 968.020 235.282, 964.043 234.773, 952 234.475 C 944.025 234.278, 934.800 234.503, 931.500 234.974 M 723 242.465 C 714.510 244.473, 706.032 244.931, 692.583 244.106 C 684.378 243.603, 677.053 243.426, 676.305 243.713 C 675.557 244, 674.510 245.048, 673.978 246.040 C 673.447 247.033, 672.112 265.318, 671.012 286.673 C 669.911 308.028, 668.287 339.345, 667.401 356.267 C 666.516 373.189, 666.060 388.101, 666.387 389.406 C 666.715 390.712, 667.717 392.061, 668.615 392.406 C 669.513 392.750, 682.891 393.701, 698.344 394.518 C 724.925 395.924, 726.532 395.910, 728.146 394.252 C 729.629 392.730, 730.192 386.090, 732.443 343.567 C 733.868 316.653, 735.274 294.392, 735.569 294.098 C 736.662 293.005, 749.635 297.128, 753.405 299.766 C 764.005 307.187, 766.940 315.045, 768.059 339 C 768.944 357.941, 770.103 363.676, 775.125 373.955 C 779.879 383.686, 792 395.432, 802.866 400.838 C 815.898 407.322, 816.891 407.130, 833.654 394.891 C 841.269 389.331, 848.513 383.852, 849.750 382.716 C 853.294 379.463, 852.571 376.604, 846.547 370.051 C 836.290 358.894, 834.361 352.666, 833.057 326.500 C 832.370 312.722, 831.649 306.858, 829.980 301.500 C 822.850 278.602, 805.834 260.071, 783.159 250.508 C 768.801 244.453, 760.351 242.817, 741.500 242.445 C 732.150 242.261, 723.825 242.270, 723 242.465 M 539.955 247.030 C 531.367 248.232, 517.562 252.272, 509.399 255.973 C 484.161 267.416, 466.731 289.212, 460.289 317.385 C 457.753 328.474, 458.046 352.189, 460.847 362.500 C 466.513 383.359, 478.443 400.068, 496.363 412.244 C 516.396 425.856, 544.226 431.142, 569 426.041 C 604.314 418.770, 633.951 396.289, 645.825 367.766 C 663.351 325.666, 640.870 272.175, 597.979 253.923 C 586.405 248.998, 576.004 246.940, 560.500 246.506 C 552.800 246.291, 543.555 246.527, 539.955 247.030 M 549.801 302.027 C 539.659 303.737, 531.502 310.328, 526.729 320.670 C 524.872 324.694, 524.500 327.252, 524.500 336 C 524.500 345.128, 524.821 347.153, 526.957 351.500 C 534.292 366.425, 550.983 374.026, 566.572 369.539 C 571.407 368.148, 573.514 366.788, 578 362.167 C 584.415 355.557, 586.887 349.757, 587.706 339.391 C 588.894 324.347, 582.496 310.432, 571.871 304.954 C 568.907 303.426, 556.913 300.704, 555 301.125 C 554.725 301.186, 552.385 301.592, 549.801 302.027 M 632.189 487.750 C 632.085 496.688, 632.337 504.001, 632.750 504.002 C 633.163 504.003, 633.381 499.166, 633.237 493.252 C 632.749 473.342, 632.379 471.401, 632.189 487.750 M 457.429 485.920 C 457.485 492.514, 457.825 494.427, 459 494.746 C 460.062 495.034, 460.149 494.902, 459.296 494.296 C 458.590 493.793, 457.940 490.143, 457.725 485.469 L 457.358 477.500 457.429 485.920 M 457 530.465 L 457 547.930 446.998 548.270 L 436.996 548.610 447.248 548.555 L 457.500 548.500 457.773 531.301 L 458.047 514.103 463.273 513.736 L 468.500 513.370 462.750 513.185 L 457 513 457 530.465 M 786.776 564.733 C 789.128 564.945, 792.728 564.942, 794.776 564.727 C 796.824 564.512, 794.900 564.339, 790.500 564.343 C 786.100 564.346, 784.424 564.522, 786.776 564.733 M 364 574.725 C 360.425 574.934, 357.161 575.443, 356.747 575.855 C 356.047 576.554, 358.631 638.941, 359.555 643.621 C 359.941 645.577, 360.849 645.799, 371.237 646.480 C 388.588 647.617, 392.163 647.416, 397.808 644.987 C 408.932 640.202, 415.364 628.482, 413.106 617.114 C 411.724 610.151, 407.681 604.202, 402.317 601.237 C 396.705 598.134, 388.215 596.689, 382.116 597.797 L 377.202 598.690 376.351 586.595 C 375.379 572.773, 376.640 573.986, 364 574.725 M 302 597.868 L 294.500 598.500 293.881 609 C 293.541 614.775, 292.968 624.970, 292.609 631.655 L 291.954 643.810 301.522 644.527 C 306.784 644.922, 311.255 645.077, 311.459 644.872 C 311.663 644.668, 312.156 637.625, 312.556 629.222 C 312.955 620.819, 313.655 613.713, 314.112 613.431 C 315.394 612.638, 320.815 615.785, 322.008 618.016 C 322.596 619.113, 323.325 623.046, 323.628 626.756 C 324.414 636.349, 325.583 639.391, 330.031 643.409 C 335.527 648.375, 338.208 648.834, 342.779 645.595 C 350.939 639.813, 350.524 640.420, 348.390 637.405 C 344.650 632.121, 344.029 630.423, 344.015 625.432 C 343.966 608.843, 333.658 598.263, 316.847 597.548 C 312.806 597.377, 306.125 597.521, 302 597.868 M 470.500 597.989 C 468.300 598.412, 463.849 599.078, 460.609 599.469 L 454.718 600.179 455.382 612.840 C 455.748 619.803, 456.328 630.112, 456.671 635.750 L 457.295 646 465.897 645.985 C 470.629 645.976, 475.078 645.603, 475.785 645.154 C 476.805 644.507, 476.881 641.269, 476.154 629.419 C 475.486 618.527, 475.544 614.298, 476.369 613.752 C 476.991 613.340, 479.371 613.273, 481.658 613.602 L 485.817 614.200 486.901 608.850 C 488.812 599.429, 488.753 598.717, 486 597.922 C 482.756 596.984, 475.558 597.016, 470.500 597.989 M 570 597.868 L 562.500 598.500 561.858 610 C 561.505 616.325, 560.926 626.519, 560.573 632.654 L 559.930 643.808 569.509 644.526 C 574.778 644.921, 579.255 645.077, 579.459 644.872 C 579.663 644.668, 580.156 637.625, 580.556 629.222 C 580.955 620.819, 581.655 613.713, 582.112 613.431 C 583.394 612.638, 588.815 615.785, 590.008 618.016 C 590.596 619.113, 591.325 623.046, 591.628 626.756 C 592.414 636.349, 593.583 639.391, 598.031 643.409 C 603.527 648.375, 606.208 648.834, 610.779 645.595 C 619.109 639.693, 618.979 640.031, 614.719 635.294 C 613.224 633.633, 612.526 630.826, 611.888 623.918 C 611.245 616.949, 610.432 613.706, 608.499 610.408 C 602.136 599.550, 591.429 596.063, 570 597.868 M 529.355 599.517 C 529.108 600.160, 528.564 606.864, 528.145 614.415 C 527.317 629.363, 527.055 629.957, 521.285 629.985 C 516.659 630.007, 515.699 627.526, 514.520 612.500 L 513.500 599.500 505.819 599.617 C 493.966 599.796, 494.713 598.659, 495.215 615.760 C 495.705 632.466, 496.990 637.028, 502.590 641.945 C 507.208 646, 513.012 647.434, 520.500 646.371 C 523.800 645.902, 530.888 645.614, 536.250 645.731 C 541.612 645.848, 546.036 645.844, 546.080 645.722 C 546.625 644.203, 548.584 600.326, 548.127 599.859 C 546.891 598.595, 529.828 598.285, 529.355 599.517 M 379.750 613.689 C 377.829 614.191, 377.457 618.757, 378.636 627.360 C 379.270 631.987, 379.283 632, 383.213 632 C 388.822 632, 393 627.744, 393 622.031 C 393 614.964, 387.682 611.616, 379.750 613.689" stroke="none" fill="#ea5252" fill-rule="evenodd"/><path d="M 313.229 185.119 C 320.136 194.496, 332.252 212.698, 343.068 229.947 L 351.500 243.394 352.132 232.947 C 352.866 220.822, 353.550 222.404, 339.230 203.087 C 326.102 185.378, 320.132 180.053, 311.612 178.455 L 307.792 177.738 313.229 185.119 M 465.718 185.631 C 465.976 189.409, 465.469 206.620, 464.593 223.878 C 463.717 241.137, 463 257.632, 463 260.536 L 463 265.815 469.250 259.590 C 474.788 254.075, 488.288 243.737, 491.237 242.754 C 491.930 242.523, 492.647 235.652, 493.200 223.945 C 494.333 199.970, 493.211 194.306, 485.872 186.967 C 481.008 182.103, 477.658 180.558, 469.375 179.359 L 465.250 178.762 465.718 185.631 M 1205.632 234.086 C 1222.149 254.718, 1229.413 272.689, 1230.690 296.079 C 1231.629 313.298, 1226.903 332.824, 1218.051 348.297 C 1209.022 364.076, 1192.899 379.318, 1176.716 387.369 L 1169.710 390.855 1173.605 391.420 C 1193.122 394.253, 1197.840 396.108, 1204.141 403.431 L 1206.782 406.500 1214.123 401.500 C 1235.647 386.839, 1248.890 368.367, 1255.248 344.138 C 1264.137 310.261, 1254.053 274.492, 1228.829 250.432 C 1220.567 242.550, 1201.849 229.362, 1205.632 234.086 M 1024 244.517 C 1024 244.830, 1025.740 247.429, 1027.867 250.293 C 1029.993 253.157, 1032.961 257.637, 1034.462 260.250 C 1035.962 262.863, 1037.485 264.998, 1037.845 264.996 C 1038.453 264.993, 1042 257.214, 1042 255.884 C 1042 255.108, 1031.431 247.746, 1027.250 245.609 C 1025.463 244.696, 1024 244.205, 1024 244.517 M 830.576 260.829 C 834.036 265.314, 834.943 265.920, 838.250 265.957 C 840.313 265.981, 842 265.839, 842 265.642 C 842 265.199, 832.392 258.800, 829.076 257.034 C 827.021 255.940, 827.250 256.519, 830.576 260.829 M 643.927 262.759 C 646.178 265.561, 648.126 267, 649.667 267 C 653.929 267, 652.936 265.874, 644.009 260.586 L 640.519 258.519 643.927 262.759 M 1118.511 408.988 C 1117.132 410.512, 1116.130 415.595, 1114.223 430.738 C 1112.855 441.607, 1111.457 450.794, 1111.118 451.154 C 1110.778 451.513, 1106.030 451.178, 1100.566 450.409 C 1089.031 448.785, 1086.507 449.596, 1085.529 455.242 C 1084.312 462.262, 1079 502.225, 1079 504.357 C 1079 509.293, 1081.011 510.314, 1093.963 511.955 L 1106.153 513.500 1106.487 535 C 1106.842 557.776, 1108.465 571.684, 1112.090 583 C 1119.285 605.462, 1133.019 618.725, 1157.735 627.079 C 1167.503 630.381, 1170.618 630.656, 1173.713 628.489 C 1176.157 626.776, 1197.230 584.434, 1196.786 582.127 C 1196.628 581.305, 1193.823 578.802, 1190.553 576.566 C 1180.413 569.632, 1177.047 559.482, 1177.017 535.750 C 1176.997 519.964, 1175.657 521.386, 1188.981 523.057 C 1198.402 524.238, 1201.491 523.820, 1202.908 521.173 C 1203.439 520.180, 1205.482 507.740, 1207.448 493.527 C 1211.975 460.804, 1213.139 463.533, 1193.568 460.997 C 1189.206 460.432, 1185.441 459.774, 1185.201 459.535 C 1184.962 459.296, 1185.873 450.481, 1187.225 439.946 C 1188.577 429.411, 1189.472 419.686, 1189.213 418.335 C 1188.955 416.984, 1187.789 415.267, 1186.622 414.520 C 1184.452 413.131, 1134.352 407, 1125.170 407 C 1121.589 407, 1119.836 407.524, 1118.511 408.988 M 1209.153 416.593 C 1210.043 419.817, 1209.131 432.821, 1207.465 440.663 C 1207.071 442.516, 1207.570 442.920, 1210.951 443.492 C 1216.159 444.372, 1223.130 449.087, 1226.297 453.872 C 1231.265 461.379, 1231.515 466.823, 1228.051 492 C 1226.348 504.375, 1224.288 517.817, 1223.474 521.872 C 1221.035 534.017, 1214.167 541.195, 1202.942 543.328 L 1197.098 544.439 1197.632 548.969 C 1198.471 556.098, 1199.721 558.273, 1204.942 561.698 C 1211.452 565.966, 1214.815 570.614, 1216.211 577.272 C 1217.978 585.693, 1216.164 591.422, 1203.988 615.890 C 1194.445 635.066, 1192.515 638.251, 1187.955 642.350 C 1178.229 651.095, 1169.013 651.901, 1149.947 645.672 L 1139.561 642.279 1144.241 646.516 C 1155.018 656.274, 1168.027 662.919, 1185.500 667.593 C 1194.693 670.052, 1195.984 670.170, 1201.500 669.060 C 1208.931 667.565, 1214.898 664.182, 1218.783 659.263 C 1223.491 653.301, 1242.605 614.229, 1243.924 607.873 C 1246.101 597.375, 1242.455 588.692, 1233.165 582.250 C 1226.850 577.871, 1226.240 576.891, 1225.405 569.790 L 1224.768 564.370 1230.634 563.081 C 1237.893 561.486, 1242.005 559.045, 1246.062 553.921 C 1250.197 548.700, 1251.240 544.240, 1255.399 514 C 1258.850 488.914, 1258.880 488.394, 1257.268 482 C 1255.891 476.540, 1254.813 474.684, 1250.531 470.402 C 1246.536 466.406, 1244.306 465.033, 1240.217 464.052 C 1237.348 463.364, 1235.016 462.283, 1235.036 461.650 C 1235.056 461.018, 1235.663 456.012, 1236.386 450.528 C 1237.515 441.964, 1237.490 439.634, 1236.212 434.030 C 1233.825 423.565, 1227.303 416.849, 1217.176 414.428 C 1208.282 412.302, 1207.990 412.380, 1209.153 416.593 M 784.500 425.616 C 772.594 426.852, 758.953 429.459, 750.758 432.064 C 743.207 434.465, 738.458 435.211, 725 436.109 C 715.925 436.714, 707.712 437.628, 706.750 438.140 C 704.528 439.321, 704.504 443.639, 706.492 482.980 C 707.313 499.216, 709.361 539.904, 711.043 573.397 C 713.374 619.826, 714.445 634.960, 715.549 637.096 C 718.795 643.372, 729.486 648.859, 745.539 652.486 C 786.828 661.816, 831.987 655.299, 861.130 635.806 C 881.426 622.229, 891.458 603.511, 889.655 582.580 C 888.225 565.976, 882.334 552.149, 872.502 542.317 L 865.984 535.798 870.960 530.354 C 877.323 523.392, 882.600 512.668, 884.667 502.500 C 886.008 495.904, 886.104 493.081, 885.214 486.415 C 881.140 455.922, 859.540 435.175, 824.500 428.101 C 814.791 426.141, 792.675 424.767, 784.500 425.616 M 235.250 447.287 C 228.869 448.052, 227 448.629, 227 449.834 C 227 452.359, 232.104 458.988, 236.822 462.590 L 241.200 465.933 244.850 463.062 C 246.858 461.482, 250.075 459.871, 252 459.480 C 258.172 458.228, 258.216 457.836, 252.867 451.738 C 249.411 447.797, 247.156 446.047, 245.667 446.150 C 244.475 446.232, 239.787 446.744, 235.250 447.287 M 971.460 469.380 C 936.993 475.026, 912.702 495.602, 903.782 526.709 C 901.908 533.244, 901.544 536.999, 901.524 550 C 901.503 563.456, 901.807 566.489, 903.828 573 C 911.993 599.307, 932.678 618.711, 960.500 626.162 C 971.762 629.179, 992.212 629.201, 1003.187 626.210 C 1021.629 621.182, 1036.107 613.435, 1048.145 602.153 C 1069.534 582.109, 1077.134 556.432, 1069.974 528.407 C 1062.726 500.034, 1040.965 478.267, 1012.500 470.914 C 1002.300 468.279, 982.662 467.545, 971.460 469.380 M 611.667 471.667 C 611.300 472.033, 611 489.981, 611 511.550 L 611 550.767 613.250 551.370 C 614.487 551.701, 618.932 551.979, 623.128 551.986 C 628.710 551.996, 631.090 551.597, 632.003 550.496 C 632.935 549.374, 633.142 544.548, 632.818 531.496 C 632.523 519.588, 632.723 514.003, 633.443 514.011 C 634.024 514.017, 638.959 516.492, 644.409 519.511 C 649.859 522.530, 654.584 524.996, 654.909 524.991 C 655.868 524.977, 666 508.088, 666 506.503 C 666 504.528, 661.823 502.519, 651.482 499.523 C 639.967 496.186, 638.761 496.261, 635.879 500.493 C 634.571 502.414, 633.163 503.989, 632.750 503.993 C 632.337 503.997, 632 496.575, 632 487.500 L 632 471 622.167 471 C 616.758 471, 612.033 471.300, 611.667 471.667 M 775.608 476.672 L 772.717 477.160 773.371 489.830 C 773.730 496.799, 774.308 507.337, 774.655 513.250 L 775.285 524 780.392 523.965 C 796.076 523.858, 812.166 517.874, 817.500 510.164 C 820.050 506.478, 820.500 504.891, 820.500 499.585 C 820.500 490.405, 816.746 484.685, 807.687 480.063 C 801.324 476.817, 800.330 476.615, 789.725 476.405 C 783.551 476.283, 777.199 476.403, 775.608 476.672 M 436.667 477.667 C 436.300 478.033, 436 481.916, 436 486.295 L 436 494.258 425.864 493.539 C 417.877 492.973, 415.549 493.104, 414.880 494.160 C 414.413 494.897, 414.024 498.950, 414.015 503.166 L 414 510.831 425 511.544 L 436 512.257 436 530.129 L 436 548 446.500 548 L 457 548 457 530.397 L 457 512.793 464.250 513.147 L 471.500 513.500 472.390 505.224 C 472.880 500.672, 473.024 496.691, 472.711 496.377 C 472.397 496.064, 468.846 495.513, 464.820 495.154 L 457.500 494.500 457.211 485.750 L 456.922 477 447.128 477 C 441.741 477, 437.033 477.300, 436.667 477.667 M 251.589 487.231 C 244.062 498.878, 226.887 521.663, 219.607 529.657 C 216.523 533.044, 214 536.061, 214 536.363 C 214 536.664, 217.150 538.782, 221.001 541.070 C 227.641 545.015, 228.124 545.149, 230.374 543.674 C 238.697 538.221, 255.175 521.096, 264.219 508.500 C 269.870 500.630, 275.448 489.605, 274.725 487.735 C 274.325 486.701, 259.054 477.913, 257.881 478.042 C 257.672 478.065, 254.840 482.200, 251.589 487.231 M 480.173 481.662 L 477.014 484.134 480.174 488.067 C 483.841 492.630, 485.758 492.951, 488.961 489.542 L 491.270 487.084 488.385 483.629 C 484.487 478.961, 483.826 478.802, 480.173 481.662 M 304.226 484.416 C 300.775 486.781, 297.675 488.992, 297.337 489.330 C 296.654 490.013, 311.855 506, 313.187 506 C 314.807 506, 329 495.578, 329 494.388 C 329 491.979, 313.229 479.568, 310.790 480.058 C 310.630 480.090, 307.677 482.051, 304.226 484.416 M 466.162 480.697 C 464.270 481.073, 463.938 481.615, 464.420 483.537 C 465.976 489.737, 466.902 491, 469.893 491 C 475.432 491, 475.899 490.419, 474.571 485.189 C 473.318 480.251, 471.982 479.538, 466.162 480.697 M 532 498.731 C 530.075 498.958, 528.146 499.487, 527.714 499.907 C 527.282 500.327, 528.100 504.380, 529.532 508.912 L 532.135 517.153 536.318 516.503 C 538.618 516.146, 541.336 515.616, 542.358 515.325 C 543.894 514.888, 543.548 516.068, 540.358 522.140 C 538.236 526.179, 534.138 532.778, 531.250 536.803 C 528.362 540.828, 526 544.657, 526.001 545.311 C 526.001 545.965, 528.814 547.534, 532.251 548.797 L 538.500 551.095 543.926 545.311 C 550.788 537.998, 559.141 525.227, 563.010 516.136 C 567.219 506.246, 567.104 505.740, 559.934 502.631 C 556.598 501.184, 553.291 500, 552.586 500 C 551.881 500, 550.492 501.800, 549.500 504 C 548.508 506.200, 547.427 507.994, 547.098 507.986 C 546.769 507.978, 545.263 505.728, 543.750 502.986 C 540.814 497.662, 540.884 497.687, 532 498.731 M 514.711 504.010 C 511.528 504.414, 508.722 504.944, 508.477 505.189 C 508.233 505.434, 509.065 509.204, 510.327 513.567 L 512.622 521.500 518.561 521.290 C 526.685 521.003, 529 520.304, 529 518.136 C 529 515.772, 522.807 503.628, 521.500 503.429 C 520.950 503.345, 517.895 503.606, 514.711 504.010 M 349 507.185 C 344.178 509.985, 323.795 519.655, 309.704 525.827 L 304.909 527.928 309.112 535.714 C 311.424 539.996, 313.607 543.840, 313.964 544.256 C 314.818 545.252, 327.226 540.993, 336.582 536.493 C 344.321 532.770, 365.040 519.403, 364.946 518.193 C 364.793 516.239, 357.204 504.473, 355.953 504.250 C 355.154 504.108, 352.025 505.428, 349 507.185 M 685 513.705 C 685 516.711, 673.359 535.156, 668.898 539.218 C 665.805 542.034, 663.383 543.217, 658.908 544.098 C 653.639 545.134, 653 545.523, 653 547.687 C 653 551.767, 650.803 559.346, 648.778 562.252 C 645.447 567.034, 640.808 569.783, 633.630 571.230 L 626.761 572.615 623.433 581.459 C 620.253 589.909, 620.175 590.441, 621.673 593.401 C 622.536 595.106, 623.894 597.246, 624.692 598.158 C 627.136 600.950, 632.115 614.106, 633.527 621.500 C 634.262 625.350, 635.548 630.938, 636.385 633.917 C 638.182 640.314, 637.088 647.597, 633.621 652.318 C 629.857 657.444, 617.436 665.759, 611.589 667.067 C 605.680 668.390, 598.109 667.221, 592.500 664.119 C 589.945 662.706, 588.833 662.637, 585 663.650 C 579.659 665.061, 567.314 665.264, 561 664.043 C 557.789 663.422, 554.831 663.600, 550.673 664.664 C 547.226 665.546, 541.303 666.068, 536.173 665.941 C 531.403 665.823, 524.125 666.063, 520 666.473 C 511.398 667.328, 502.307 665.481, 495.408 661.476 L 491.316 659.101 487.908 661.361 C 483.222 664.469, 475.538 666.001, 464.674 665.994 C 452.578 665.987, 448.756 664.808, 443.372 659.425 L 438.947 655 429.267 655 C 419.642 655, 419.555 655.022, 414.043 658.881 C 403.775 666.070, 391.113 668.962, 378.498 667 C 373.919 666.287, 368.206 665.974, 365.802 666.304 C 363.398 666.633, 359.250 666.346, 356.585 665.667 C 352.333 664.582, 351.007 664.671, 345.757 666.392 C 340.403 668.147, 339.130 668.222, 333.637 667.104 C 330.262 666.417, 326.150 665.091, 324.500 664.158 C 321.929 662.703, 320.856 662.631, 317 663.650 C 314.525 664.304, 309.913 664.875, 306.750 664.920 C 303.587 664.964, 301.003 665.337, 301.006 665.750 C 301.056 672.476, 307.864 680.355, 315.446 682.463 C 323.662 684.747, 337.649 685.299, 343.893 683.585 C 348.857 682.223, 349.574 682.249, 352.893 683.905 C 359.397 687.150, 365.343 688.118, 371.196 686.884 C 374.113 686.269, 377.057 685.319, 377.737 684.771 C 378.418 684.224, 379.768 684.097, 380.737 684.488 C 382.525 685.210, 408.444 687.277, 415.166 687.234 C 422.948 687.183, 434.305 683.665, 440.882 679.267 L 447.265 675 457.382 675.001 L 467.500 675.002 471.379 679 C 473.957 681.657, 476.953 683.503, 480.311 684.500 C 490.303 687.467, 509.583 685.569, 516.022 680.984 C 519.449 678.544, 519.461 678.544, 522.790 680.993 C 524.281 682.088, 529.500 683.959, 534.390 685.150 C 542.537 687.134, 543.929 687.209, 551.073 686.049 C 555.634 685.309, 561.694 685.047, 565.683 685.419 C 570.375 685.857, 574.183 685.595, 577.898 684.579 C 582.334 683.366, 585.275 683.290, 594.398 684.153 C 603.658 685.030, 606.479 684.948, 611.399 683.658 C 616.900 682.216, 617.542 682.234, 620.899 683.920 C 632.120 689.555, 640.841 688.484, 652.359 680.055 C 660.413 674.160, 662.579 671.310, 664.447 664.146 C 665.432 660.372, 665.395 658.562, 664.252 654.500 C 663.478 651.750, 662.416 647.090, 661.892 644.144 C 660.414 635.839, 656.382 625.252, 651.819 617.701 L 647.664 610.824 649.943 604.662 C 651.196 601.273, 652.678 597.099, 653.236 595.388 C 654.177 592.503, 654.747 592.187, 661.032 591.064 C 672.295 589.051, 678.053 583.282, 680.071 571.988 L 681.291 565.164 685.724 564.048 L 690.157 562.932 689.469 549.716 C 687.610 514.004, 687.494 512.659, 686.250 512.247 C 685.548 512.015, 685 512.654, 685 513.705 M 975.500 519.292 C 965.444 524.107, 959 535.068, 959 547.359 C 959 556.728, 961.387 562.535, 967.926 569.074 C 974.436 575.584, 980.297 578.011, 989.428 577.978 C 1003.428 577.927, 1013.420 568.620, 1015.856 553.362 C 1017.524 542.912, 1014.912 532.386, 1008.970 525.618 C 1003.849 519.786, 998.862 517.701, 989 517.270 C 981.628 516.948, 979.837 517.216, 975.500 519.292 M 415.500 523.468 C 409.864 524.866, 406.419 526.224, 406.284 527.101 C 406.166 527.870, 407.551 532.100, 409.364 536.500 C 412.617 544.400, 412.702 544.499, 416.160 544.401 C 419.635 544.303, 428.739 540.581, 432.419 537.753 C 434.281 536.324, 434.216 536.056, 430.300 528.933 C 428.079 524.893, 425.865 521.508, 425.381 521.411 C 424.896 521.314, 420.450 522.240, 415.500 523.468 M 467.500 525.534 C 464.200 527.444, 461.633 529.516, 461.795 530.138 C 461.957 530.759, 464.207 533.990, 466.795 537.318 C 469.383 540.645, 471.815 543.838, 472.201 544.413 C 472.955 545.539, 491 537.240, 491 535.768 C 491 533.405, 477.251 521.961, 474.500 522.034 C 473.950 522.049, 470.800 523.624, 467.500 525.534 M 274 528.879 C 274 530.772, 251.180 553.524, 244.758 558.034 C 237.948 562.816, 229.806 565.705, 225.966 564.701 C 222.894 563.898, 223.629 565.684, 228.260 570.276 C 233.844 575.813, 243.892 581.889, 250.230 583.561 C 260.905 586.377, 270.894 581.257, 287.743 564.333 L 296.987 555.049 294.163 550.596 C 290.965 545.553, 275.896 528.020, 274.750 528.008 C 274.337 528.003, 274 528.396, 274 528.879 M 780.303 564.719 L 777.106 565.119 777.632 573.309 C 777.921 577.814, 778.460 587.350, 778.829 594.500 L 779.500 607.500 791 607.477 C 805.511 607.448, 811.296 605.661, 818.033 599.126 C 824.087 593.253, 825.922 587.896, 824.149 581.269 C 823.479 578.762, 822.035 575.454, 820.941 573.917 C 815.793 566.687, 797.569 562.563, 780.303 564.719 M 1088 592.666 C 1086.625 592.883, 1084.544 593.266, 1083.376 593.517 C 1082.152 593.781, 1078.679 597.516, 1075.184 602.325 C 1058.450 625.359, 1033.537 640.411, 1001.343 646.940 C 983.679 650.522, 964.947 649.041, 945.500 642.524 C 941.650 641.234, 938.358 640.317, 938.185 640.487 C 937.224 641.431, 954.841 653.764, 962.592 657.575 C 977.331 664.821, 1000.758 669.778, 1015.053 668.675 C 1023.443 668.028, 1041.161 664.226, 1050 661.175 C 1069.258 654.528, 1089.448 639.888, 1101.731 623.661 L 1106.800 616.966 1102.455 610.487 C 1100.066 606.924, 1097.125 601.306, 1095.921 598.004 C 1093.682 591.863, 1093.572 591.789, 1088 592.666 M 900.451 623.750 C 882.708 654.519, 840.028 674.871, 789.500 676.658 C 771.486 677.295, 756.745 675.783, 739.103 671.490 C 733.385 670.098, 728.520 669.147, 728.292 669.375 C 727.409 670.257, 734.427 677.120, 740.057 680.879 C 753.639 689.949, 782.963 696.367, 811 696.406 C 828.757 696.430, 836.638 695.469, 855.775 690.943 C 888.342 683.240, 912.298 667.883, 927.615 644.889 L 932.685 637.279 927.253 634.030 C 924.265 632.243, 918.656 628.130, 914.788 624.890 C 906.013 617.541, 904.118 617.390, 900.451 623.750" stroke="none" fill="#000000" fill-rule="evenodd"/></svg>