<?xml version="1.0" standalone="no"?>
<!DOCTYPE svg PUBLIC "-//W3C//DTD SVG 20010904//EN"
 "http://www.w3.org/TR/2001/REC-SVG-20010904/DTD/svg10.dtd">
<svg version="1.0" xmlns="http://www.w3.org/2000/svg"
 width="500.000000pt" height="500.000000pt" viewBox="0 0 500.000000 500.000000"
 preserveAspectRatio="xMidYMid meet">
<metadata>
Created by potrace 1.11, written by Peter Selinger 2001-2013
</metadata>
<g transform="translate(0.000000,500.000000) scale(0.100000,-0.100000)"
fill="#000000" stroke="none">
<path d="M2389 4496 c-2 -2 -40 -6 -84 -9 -433 -33 -888 -249 -1216 -579 -302
-304 -493 -675 -565 -1103 -24 -140 -24 -471 0 -615 71 -429 261 -803 562
-1104 251 -250 575 -435 917 -522 184 -46 323 -62 532 -58 105 1 206 6 225 9
19 3 60 10 90 16 123 21 237 51 342 90 552 206 986 641 1186 1190 36 100 78
254 88 324 3 28 8 59 11 70 18 91 24 363 10 490 -15 140 -28 209 -72 375 -16
60 -71 202 -112 290 -190 404 -509 729 -914 931 -258 129 -535 196 -840 204
-86 3 -158 3 -160 1z m406 -51 c429 -69 790 -251 1090 -549 304 -303 492 -676
562 -1121 22 -137 21 -425 -1 -570 -88 -578 -417 -1076 -915 -1385 -218 -135
-488 -231 -766 -271 -107 -16 -434 -16 -520 -1 -33 6 -80 14 -105 17 -69 10
-245 60 -346 98 -470 180 -870 552 -1076 1002 -82 179 -147 389 -163 530 -4
28 -10 82 -15 120 -8 72 -6 379 3 412 3 10 8 38 11 63 10 71 15 99 42 200 191
726 777 1284 1510 1435 71 15 165 30 209 34 122 11 368 4 480 -14z"/>
</g>
</svg>
